<?xml version="1.0" encoding="UTF-8"?>
<svg version="1.1" xmlns="http://www.w3.org/2000/svg" width="64" height="64">
<path d="M0 0 C1.44609884 0.89143079 2.86764652 1.82510466 4.25 2.8125 C5.3225 3.534375 6.395 4.25625 7.5 5 C15.31435552 12.99195451 17.57557142 20.94700762 17.6394043 31.83105469 C17.52507372 38.50902992 16.17464658 43.31799479 12.25 48.8125 C11.528125 49.885 10.80625 50.9575 10.0625 52.0625 C2.07054549 59.87685552 -5.88450762 62.13807142 -16.76855469 62.2019043 C-23.44652992 62.08757372 -28.25549479 60.73714658 -33.75 56.8125 C-34.8225 56.090625 -35.895 55.36875 -37 54.625 C-44.81435552 46.63304549 -47.07557142 38.67799238 -47.1394043 27.79394531 C-47.02507372 21.11597008 -45.67464658 16.30700521 -41.75 10.8125 C-41.028125 9.74 -40.30625 8.6675 -39.5625 7.5625 C-29.48996387 -2.28620199 -13.11825331 -6.40845759 0 0 Z " fill="#FCFCFD" transform="translate(46.75,2.1875)"/>
<path d="M0 0 C1.44609884 0.89143079 2.86764652 1.82510466 4.25 2.8125 C5.3225 3.534375 6.395 4.25625 7.5 5 C15.31435552 12.99195451 17.57557142 20.94700762 17.6394043 31.83105469 C17.52507372 38.50902992 16.17464658 43.31799479 12.25 48.8125 C11.528125 49.885 10.80625 50.9575 10.0625 52.0625 C2.07054549 59.87685552 -5.88450762 62.13807142 -16.76855469 62.2019043 C-23.44652992 62.08757372 -28.25549479 60.73714658 -33.75 56.8125 C-34.8225 56.090625 -35.895 55.36875 -37 54.625 C-44.81435552 46.63304549 -47.07557142 38.67799238 -47.1394043 27.79394531 C-47.02507372 21.11597008 -45.67464658 16.30700521 -41.75 10.8125 C-41.028125 9.74 -40.30625 8.6675 -39.5625 7.5625 C-29.48996387 -2.28620199 -13.11825331 -6.40845759 0 0 Z M-38.2109375 9.828125 C-44.97672145 18.55152157 -46.08919108 27.08808364 -44.75 37.8125 C-42.13620733 46.66715446 -36.11286247 53.06454738 -28.3125 57.75 C-20.77662072 61.21305292 -11.64300198 61.25685819 -3.74609375 58.92578125 C4.43816149 55.16477235 10.60227235 49.00066149 14.36328125 40.81640625 C16.69435819 32.91949802 16.65055292 23.78587928 13.1875 16.25 C8.50204738 8.44963753 2.10465446 2.42629267 -6.75 -0.1875 C-19.13005203 -1.73343543 -29.5507513 0.22393746 -38.2109375 9.828125 Z " fill="#58649D" transform="translate(46.75,2.1875)"/>
<path d="M0 0 C3 1.6875 3 1.6875 5 4 C5.3125 6.75 5.3125 6.75 5 9 C2.625 9.1875 2.625 9.1875 0 9 C-0.66 8.01 -1.32 7.02 -2 6 C-3.32 6 -4.64 6 -6 6 C-6.33 6.99 -6.66 7.98 -7 9 C-6.38511719 9.18175781 -5.77023438 9.36351562 -5.13671875 9.55078125 C-3.92435547 9.92783203 -3.92435547 9.92783203 -2.6875 10.3125 C-1.48673828 10.67794922 -1.48673828 10.67794922 -0.26171875 11.05078125 C2.15977703 12.06705668 3.40726495 12.92339607 5 15 C5.48686939 18.82540234 5.53974912 21.08477323 3.5625 24.4375 C-0.24881274 26.76147118 -3.6518621 26.76595312 -8 26 C-11.0625 24.3125 -11.0625 24.3125 -13 22 C-13.3125 19.25 -13.3125 19.25 -13 17 C-10.625 16.8125 -10.625 16.8125 -8 17 C-7.34 17.99 -6.68 18.98 -6 20 C-3.41619823 20.25030977 -3.41619823 20.25030977 -1 20 C-1.65393656 16.89010706 -1.65393656 16.89010706 -3.99609375 15.9375 C-4.80175781 15.628125 -5.60742188 15.31875 -6.4375 15 C-9.97530152 13.63712301 -10.80724219 13.28913671 -13 10 C-12.87059529 6.3766682 -12.75012072 3.93014969 -10.4375 1.0625 C-6.93821542 -0.46282917 -3.71094605 -0.66135672 0 0 Z " fill="#A0A7C7" transform="translate(25,19)"/>
<path d="M0 0 C1.98 0 3.96 0 6 0 C7.65 4.62 9.3 9.24 11 14 C11.804375 11.875625 12.60875 9.75125 13.4375 7.5625 C15.875 1.125 15.875 1.125 17 0 C18.99958364 -0.04080783 21.00045254 -0.04254356 23 0 C20.56696874 8.87842985 17.29163506 17.41405225 14 26 C12.35 26 10.7 26 9 26 C0 4.8647541 0 4.8647541 0 0 Z " fill="#7781AF" transform="translate(30,19)"/>
<path d="M0 0 C0.99 0 1.98 0 3 0 C0.81659819 7.86379677 -1.99285026 15.41675284 -5 23 C-6.87988281 22.76147461 -6.87988281 22.76147461 -9 22 C-10.09667969 20.17407227 -10.09667969 20.17407227 -10.921875 17.81640625 C-11.22480469 16.97142578 -11.52773438 16.12644531 -11.83984375 15.25585938 C-12.14019531 14.36705078 -12.44054688 13.47824219 -12.75 12.5625 C-13.22373047 11.23508789 -13.22373047 11.23508789 -13.70703125 9.88085938 C-16 3.36426204 -16 3.36426204 -16 1 C-15.01 1 -14.02 1 -13 1 C-11.02 6.28 -9.04 11.56 -7 17 C-6.401875 15.494375 -5.80375 13.98875 -5.1875 12.4375 C-3.51898488 8.26324332 -1.7923547 4.12241581 0 0 Z " fill="#F3F4F8" transform="translate(48,20)"/>
<path d="M0 0 C0.66 0 1.32 0 2 0 C1.47847117 3.23347872 0.60252381 6.17906783 -0.5 9.25 C-2.0824898 13.84308016 -2.61630342 18.16542313 -3 23 C-3.33 23 -3.66 23 -4 23 C-4.43995881 14.40858218 -4.46309065 7.53146548 0 0 Z " fill="#4D5A97" transform="translate(4,14)"/>
<path d="M0 0 C0 1.32 0 2.64 0 4 C-1.65 4 -3.3 4 -5 4 C-5.66 2.68 -6.32 1.36 -7 0 C-8.65 0 -10.3 0 -12 0 C-12 -0.33 -12 -0.66 -12 -1 C-7.31034294 -2.11658501 -4.46236469 -1.80619523 0 0 Z " fill="#EFF0F6" transform="translate(24,36)"/>
<path d="M0 0 C1.65 0.33 3.3 0.66 5 1 C5.33 1.99 5.66 2.98 6 4 C7.65 4 9.3 4 11 4 C11 4.33 11 4.66 11 5 C2.42857143 6.42857143 2.42857143 6.42857143 -1 4 C-0.67 2.68 -0.34 1.36 0 0 Z " fill="#ECEDF4" transform="translate(19,24)"/>
<path d="M0 0 C0.99 0 1.98 0 3 0 C3.66 0.99 4.32 1.98 5 3 C7.56282742 3.72965366 7.56282742 3.72965366 10 4 C10.33 4.99 10.66 5.98 11 7 C7.18634321 7.35475877 5.41557542 7.2619932 2.125 5.1875 C0 3 0 3 0 0 Z " fill="#E7E8F0" transform="translate(13,37)"/>
<path d="M0 0 C3.81365679 -0.35475877 5.58442458 -0.2619932 8.875 1.8125 C11 4 11 4 11 7 C10.01 7 9.02 7 8 7 C7.34 6.01 6.68 5.02 6 4 C3.43717258 3.27034634 3.43717258 3.27034634 1 3 C0.67 2.01 0.34 1.02 0 0 Z " fill="#E6E8F0" transform="translate(18,20)"/>
<path d="M0 0 C1.76923828 0.01353516 1.76923828 0.01353516 3.57421875 0.02734375 C4.47785156 0.03894531 5.38148437 0.05054688 6.3125 0.0625 C6.3125 0.3925 6.3125 0.7225 6.3125 1.0625 C3.5 1.53125 3.5 1.53125 0.6875 2 C-0.87871094 2.26103516 -0.87871094 2.26103516 -2.4765625 2.52734375 C-5.546875 3.0390625 -8.6171875 3.55078125 -11.6875 4.0625 C-8.52263557 -0.68479664 -5.34818972 -0.05295237 0 0 Z " fill="#4D5997" transform="translate(29.6875,-0.0625)"/>
<path d="M0 0 C0.99 0 1.98 0 3 0 C2.34 2.31 1.68 4.62 1 7 C0.01 7 -0.98 7 -2 7 C-1.125 1.125 -1.125 1.125 0 0 Z " fill="#E6E7F0" transform="translate(48,20)"/>
</svg>
